# xmcd
#
# Track frame offsets:
#	150
#	16562
#	28092
#	44670
#	58650
#	70545
#	83267
#	100020
#	117760
#	129755
#
# Disc length: 1937 seconds
#
# Revision: 3
# Processed by: cddbd v1.5.1PL0 Copyright (c) Steve Scherf et al.
# Submitted via: EasyCDDAExtractor 7.0.5.4
#
DISCID=6a078f0a
DTITLE=Exile - Kentucky Hearts
DYEAR=1985
DGENRE=Country
TTITLE0=She's A Miracle
TTITLE1=I've Never Seen Anything
TTITLE2=You Make It Easy 
TTITLE3=Comin' Apart At The Seams
TTITLE4=Just In Case
TTITLE5=Give Me One Chance
TTITLE6=Somethin' You Got
TTITLE7=If I Didn't Love You
TTITLE8=Ain't That A Pity
TTITLE9=CrazyForYourLove(1984,Exile,Lexington,KY)
EXTD=more info
EXTT0=
EXTT1=
EXTT2=
EXTT3=
EXTT4=
EXTT5=
EXTT6=
EXTT7=
EXTT8=
EXTT9=
PLAYORDER=
